<svg width="96" height="38" viewBox="0 0 96 38" fill="currentColor" xmlns="http://www.w3.org/2000/svg">
<g clip-path="url(#clip0_2365_5604)">
<path d="M10.496 27.8321C10.4845 27.857 10.4739 27.8824 10.4643 27.9083C7.42033 26.113 4.3762 24.3177 1.33217 22.5223C4.57631 27.0092 7.82043 31.4961 11.0645 35.9829L11.3988 29.3489C11.4225 29.3505 11.4464 29.3516 11.4704 29.3516C11.475 29.3516 11.4796 29.3513 11.4842 29.3512L11.8342 36.292C11.7205 36.251 11.5979 36.2285 11.4701 36.2285C11.089 36.2285 10.7546 36.4274 10.5645 36.7269L1.27002 22.5222C1.51246 22.3634 1.68644 22.1091 1.73884 21.8127C4.65788 23.8191 7.57693 25.8256 10.496 27.8321Z" fill="white"/>
<path d="M21.2613 22.1721C21.4141 22.429 21.671 22.6165 21.974 22.6764C18.6812 27.2609 15.3884 31.8455 12.0956 36.43C12.0821 36.4203 12.0683 36.4108 12.0542 36.4016C15.1101 31.6979 18.1662 26.9941 21.222 22.2903C18.3287 24.2932 15.4355 26.2962 12.5421 28.299C12.5422 28.2925 12.5427 28.286 12.5427 28.2795C12.5427 27.988 12.4262 27.7238 12.2373 27.5305L21.2613 22.1721Z" fill="white"/>
<path d="M10.7482 25.3429C10.5448 25.5286 10.413 25.7916 10.3995 26.0854C7.45536 24.0616 4.51107 22.0379 1.56689 20.0142C1.58093 19.9938 1.59411 19.9728 1.60674 19.9514C4.65389 21.7486 7.70109 23.5458 10.7482 25.3429Z" fill="white"/>
<path d="M21.1031 19.615C21.1587 19.8973 21.325 20.1399 21.555 20.2955C18.5203 22.0974 15.4854 23.8992 12.4506 25.7011C12.4397 25.6766 12.4282 25.6525 12.4155 25.629C15.3114 23.6244 18.2072 21.6197 21.1031 19.615Z" fill="white"/>
<path d="M11.8749 25.1424C11.7501 25.0915 11.6137 25.0632 11.4705 25.0632C11.3272 25.0632 11.1904 25.0915 11.0654 25.1425L11.4261 14.5635C11.4409 14.5641 11.4556 14.5647 11.4705 14.5647C11.4852 14.5647 11.4998 14.5641 11.5144 14.5635L11.8749 25.1424Z" fill="white"/>
<path d="M10.9553 1.63941C10.9542 1.64142 10.9531 1.6435 10.952 1.64551C7.89442 7.20823 4.83679 12.771 1.77922 18.3337C4.66776 16.8242 7.5563 15.3146 10.4449 13.8051C10.4531 13.8323 10.4626 13.8588 10.4729 13.885C7.5642 15.6804 4.65551 17.4758 1.74681 19.2712C1.68535 18.784 1.2973 18.3988 0.808594 18.3421C0.825016 18.3149 0.841557 18.2879 0.857979 18.2607L10.9137 1.6234C10.9148 1.62153 10.9158 1.61955 10.9169 1.61768C10.9295 1.62527 10.9424 1.63233 10.9553 1.63941Z" fill="white"/>
<path d="M21.2524 18.828C21.2382 18.8501 21.2245 18.8725 21.212 18.8957C18.2343 17.3291 15.2567 15.7624 12.2791 14.1959C12.443 14.0076 12.5425 13.7618 12.5425 13.4926C12.5425 13.4654 12.5411 13.4385 12.5391 13.4119C15.4435 15.2172 18.3479 17.0226 21.2524 18.828Z" fill="white"/>
<path d="M12.3706 1.42614L21.6397 18.4663C21.6266 18.4734 21.6138 18.4807 21.6012 18.4884L11.8602 2.2143L11.5001 12.421C11.4903 12.4208 11.4804 12.4205 11.4705 12.4205C11.4604 12.4205 11.4504 12.4208 11.4404 12.421L11.0615 1.69038C11.1876 1.74246 11.3257 1.77141 11.4705 1.77141C11.8202 1.77141 12.1307 1.60383 12.3263 1.34473C12.3411 1.37186 12.3558 1.39901 12.3706 1.42614Z" fill="white"/>
<path d="M0.68333 18.7781C1.0304 18.7781 1.31173 19.0596 1.31173 19.4066C1.31167 19.7537 1.03037 20.0351 0.68333 20.0351C0.33629 20.0351 0.0549901 19.7537 0.0549316 19.4066C0.0549316 19.0596 0.336254 18.7781 0.68333 18.7781Z" fill="white"/>
<path d="M11.4705 25.5068C11.8175 25.5068 12.0989 25.7883 12.0989 26.1354C12.0988 26.4825 11.8174 26.7638 11.4705 26.7638C11.1234 26.7638 10.8421 26.4825 10.842 26.1354C10.842 25.7883 11.1234 25.5068 11.4705 25.5068Z" fill="white"/>
<path d="M11.4705 12.8643C11.8175 12.8643 12.0989 13.1456 12.0989 13.4927C12.0989 13.8397 11.8175 14.1211 11.4705 14.1211C11.1234 14.1211 10.842 13.8397 10.842 13.4927C10.842 13.1456 11.1234 12.8643 11.4705 12.8643Z" fill="white"/>
<path d="M12.5207 13.7088C12.5194 13.7151 12.5175 13.7214 12.5161 13.7276C12.5179 13.7197 12.5201 13.7118 12.5216 13.7039L12.5207 13.7088Z" fill="white"/>
<path d="M11.5579 1.76782C11.5292 1.77013 11.5002 1.77163 11.4708 1.77163L11.4705 1.77144C11.4999 1.77144 11.5291 1.77015 11.5579 1.76782Z" fill="white"/>
<path d="M11.4705 0.0710449C11.8175 0.0710518 12.0989 0.352372 12.0989 0.699444C12.0989 1.04651 11.8175 1.32783 11.4705 1.32784C11.1234 1.32784 10.842 1.04651 10.842 0.699444C10.842 0.352367 11.1234 0.0710449 11.4705 0.0710449Z" fill="white"/>
<path d="M21.4314 20.1982C21.4346 20.2012 21.438 20.2039 21.4413 20.2068C21.4388 20.2046 21.4362 20.2026 21.4337 20.2003L21.4314 20.1982Z" fill="white"/>
<path d="M22.1547 18.7786C22.5018 18.7786 22.7831 19.0598 22.7831 19.407C22.7831 19.754 22.5018 20.0353 22.1547 20.0353C21.8076 20.0353 21.5264 19.754 21.5264 19.407C21.5264 19.0598 21.8076 18.7786 22.1547 18.7786Z" fill="white"/>
<path d="M21.3633 20.1299L21.3967 20.1647C21.385 20.1531 21.3737 20.1411 21.3625 20.1289C21.3628 20.1292 21.363 20.1296 21.3633 20.1299Z" fill="white"/>
<path d="M22.1831 20.9963C22.5302 20.9963 22.8115 21.2779 22.8115 21.625C22.8114 21.972 22.5302 22.2533 22.1831 22.2533C21.8361 22.2533 21.5548 21.972 21.5547 21.625C21.5547 21.2779 21.836 20.9963 22.1831 20.9963Z" fill="white"/>
<path d="M11.4705 27.6509C11.8175 27.6509 12.0989 27.9322 12.0989 28.2793C12.0989 28.6264 11.8175 28.9077 11.4705 28.9077C11.1234 28.9077 10.842 28.6264 10.842 28.2793C10.842 27.9322 11.1234 27.6509 11.4705 27.6509Z" fill="white"/>
<path d="M11.4705 36.6721C11.8175 36.6721 12.0989 36.9535 12.0989 37.3005C12.0989 37.6476 11.8175 37.9289 11.4705 37.9289C11.1234 37.9289 10.842 37.6476 10.842 37.3005C10.842 36.9535 11.1234 36.6721 11.4705 36.6721Z" fill="white"/>
<path d="M0.68333 20.9963C1.0304 20.9963 1.31173 21.2779 1.31173 21.625C1.31167 21.972 1.03037 22.2533 0.68333 22.2533C0.33629 22.2533 0.0549901 21.972 0.0549316 21.625C0.0549316 21.2779 0.336254 20.9963 0.68333 20.9963Z" fill="white"/>
<path d="M1.73358 21.8412C1.73227 21.8475 1.73041 21.8537 1.729 21.86C1.73078 21.8521 1.73293 21.8442 1.73453 21.8362L1.73358 21.8412Z" fill="white"/>
<path d="M34.8817 30.9081C33.4422 30.9081 32.172 30.6223 31.0711 30.0507C29.9703 29.4792 29.113 28.6959 28.499 27.7008C27.8851 26.6848 27.5781 25.5098 27.5781 24.1761C27.5781 22.7366 27.9909 21.4875 28.8166 20.4291C29.6634 19.3493 30.7747 18.6826 32.1508 18.4285V18.3333C30.9653 18.058 30.0127 17.4547 29.2929 16.5232C28.5731 15.5706 28.2132 14.4697 28.2132 13.2207C28.2132 12.014 28.4884 10.9555 29.0388 10.0452C29.6105 9.11378 30.3937 8.39402 31.3887 7.88594C32.4049 7.35666 33.5692 7.09204 34.8817 7.09204C36.1942 7.09204 37.348 7.35666 38.343 7.88594C39.3592 8.39402 40.1424 9.11378 40.6928 10.0452C41.2645 10.9555 41.5502 12.014 41.5502 13.2207C41.5502 14.4697 41.1903 15.5706 40.4706 16.5232C39.7508 17.4547 38.7981 18.058 37.6127 18.3333V18.4285C38.9886 18.6826 40.0895 19.3493 40.9152 20.4291C41.7619 21.4875 42.1853 22.7366 42.1853 24.1761C42.1853 25.5098 41.8783 26.6848 41.2645 27.7008C40.6505 28.6959 39.7931 29.4792 38.6923 30.0507C37.5914 30.6223 36.3213 30.9081 34.8817 30.9081ZM34.8817 17.3806C36.1096 17.3806 37.1046 17.0101 37.8667 16.2692C38.6287 15.5283 39.0099 14.5544 39.0099 13.3477C39.0099 12.1622 38.6287 11.199 37.8667 10.458C37.1046 9.69593 36.1096 9.31488 34.8817 9.31488C33.6539 9.31488 32.6589 9.69593 31.8968 10.458C31.1346 11.199 30.7536 12.1622 30.7536 13.3477C30.7536 14.5544 31.1346 15.5283 31.8968 16.2692C32.6589 17.0101 33.6539 17.3806 34.8817 17.3806ZM34.8817 28.6535C36.3001 28.6535 37.4433 28.2407 38.3113 27.4151C39.2004 26.5683 39.6449 25.4781 39.6449 24.1443C39.6449 22.8106 39.2004 21.7204 38.3113 20.8736C37.4433 20.0268 36.3001 19.6034 34.8817 19.6034C33.4634 19.6034 32.3096 20.0268 31.4204 20.8736C30.5525 21.7204 30.1185 22.8106 30.1185 24.1443C30.1185 25.4781 30.5525 26.5683 31.4204 27.4151C32.3096 28.2407 33.4634 28.6535 34.8817 28.6535Z" fill="white"/>
<path d="M52.9696 30.9081C50.8738 30.9081 49.2014 30.2942 47.9524 29.0663C46.7245 27.8173 46.1106 26.1555 46.1106 24.0809V13.9193C46.1106 11.8446 46.7245 10.1934 47.9524 8.96558C49.2014 7.71658 50.8738 7.09204 52.9696 7.09204C55.0866 7.09204 56.759 7.71658 57.9869 8.96558C59.2147 10.1934 59.8287 11.8446 59.8287 13.9193V24.0809C59.8287 26.1555 59.2041 27.8173 57.9551 29.0663C56.7273 30.2942 55.0654 30.9081 52.9696 30.9081ZM52.9696 28.7488C54.3033 28.7488 55.3724 28.3254 56.1769 27.4786C56.9813 26.6106 57.3836 25.4781 57.3836 24.0809V13.9193C57.3836 12.5221 56.9813 11.4001 56.1769 10.5533C55.3724 9.68535 54.3033 9.25133 52.9696 9.25133C51.6359 9.25133 50.5669 9.68535 49.7624 10.5533C48.9579 11.4001 48.5557 12.5221 48.5557 13.9193V24.0809C48.5557 25.4781 48.9579 26.6106 49.7624 27.4786C50.5669 28.3254 51.6359 28.7488 52.9696 28.7488ZM52.9696 20.6513C52.4192 20.6513 51.9747 20.5031 51.6359 20.2067C51.3184 19.8892 51.1596 19.4552 51.1596 18.9048C51.1596 18.3544 51.3184 17.9416 51.6359 17.6664C51.9747 17.37 52.4192 17.2218 52.9696 17.2218C53.52 17.2218 53.954 17.37 54.2716 17.6664C54.6103 17.9416 54.7797 18.3544 54.7797 18.9048C54.7797 19.4552 54.6103 19.8892 54.2716 20.2067C53.954 20.5031 53.52 20.6513 52.9696 20.6513Z" fill="white"/>
<path d="M71.0573 30.9081C68.9615 30.9081 67.2891 30.2942 66.04 29.0663C64.8122 27.8173 64.1982 26.1555 64.1982 24.0809V13.9193C64.1982 11.8446 64.8122 10.1934 66.04 8.96558C67.2891 7.71658 68.9615 7.09204 71.0573 7.09204C73.1743 7.09204 74.8467 7.71658 76.0746 8.96558C77.3025 10.1934 77.9165 11.8446 77.9165 13.9193V24.0809C77.9165 26.1555 77.2921 27.8173 76.0425 29.0663C74.8146 30.2942 73.1531 30.9081 71.0573 30.9081ZM71.0573 28.7488C72.391 28.7488 73.4601 28.3254 74.2645 27.4786C75.0687 26.6106 75.4711 25.4781 75.4711 24.0809V13.9193C75.4711 12.5221 75.0687 11.4001 74.2645 10.5533C73.4601 9.68535 72.391 9.25133 71.0573 9.25133C69.7236 9.25133 68.6545 9.68535 67.85 10.5533C67.0456 11.4001 66.6434 12.5221 66.6434 13.9193V24.0809C66.6434 25.4781 67.0456 26.6106 67.85 27.4786C68.6545 28.3254 69.7236 28.7488 71.0573 28.7488ZM71.0573 20.6513C70.5069 20.6513 70.0623 20.5031 69.7236 20.2067C69.406 19.8892 69.2473 19.4552 69.2473 18.9048C69.2473 18.3544 69.406 17.9416 69.7236 17.6664C70.0623 17.37 70.5069 17.2218 71.0573 17.2218C71.6077 17.2218 72.0417 17.37 72.3592 17.6664C72.6979 17.9416 72.8673 18.3544 72.8673 18.9048C72.8673 19.4552 72.6979 19.8892 72.3592 20.2067C72.0417 20.5031 71.6077 20.6513 71.0573 20.6513Z" fill="white"/>
<path d="M92.4794 30.5906V25.4146H81.9683V21.2865L90.5741 7.40967H93.4316L84.477 21.8898V23.1283H92.4794V17.2536H95.0194V30.5906H92.4794Z" fill="white"/>
</g>
<defs>
<clipPath id="clip0_2365_5604">
<rect width="95.0745" height="38" fill="white"/>
</clipPath>
</defs>
</svg>
