<svg xmlns="http://www.w3.org/2000/svg" viewBox="0 0 150 16" fill="none">
  <g fill="#fff" clip-path="url(#a)">
    <path d="M125.964 2.73h23.607V.024h-23.607c-.861 0-1.721.208-2.489.598a5.513 5.513 0 0 0-1.949 1.661l-1.719 2.359a5.702 5.702 0 0 0 0 6.713l1.719 2.359a5.515 5.515 0 0 0 1.949 1.66c.768.39 1.628.599 2.489.599h23.607V13.2h-23.607a2.175 2.175 0 0 1-1.75-.89l-2.407-2.982h27.44V6.665h-27.44l2.407-3.046a2.171 2.171 0 0 1 1.75-.89ZM115.658.025l-4.71 6.397a125.753 125.753 0 0 0-1.956 2.605c-2.627 3.619-2.652 3.619-4.64 3.619-1.865 0-1.9 0-4.515-3.344-.614-.787-1.379-1.763-2.313-2.915L92.583.025h-4.218l6.541 8.42.022.028c.922 1.133 1.677 2.1 2.288 2.88 1.402 1.792 2.247 2.874 3.223 3.584 1.19.867 2.384 1.04 3.92 1.04.889 0 1.545-.064 2.128-.208a5.096 5.096 0 0 0 1.904-.915c.992-.762 1.853-1.92 3.28-3.843.55-.743 1.177-1.584 1.936-2.576l.009-.013 6.186-8.397h-4.144ZM60.691 13.104c-.297-.375-.576-.724-.838-1.053-1.61-2.026-2.576-3.239-3.411-4.051.544-.529 1.142-1.23 1.939-2.212.425-.525.909-1.133 1.472-1.84.262-.33.54-.681.838-1.053l.01-.012L62.896.025h-4.198l-.618.806c-.294.372-.573.717-.832 1.047-1.6 2.013-2.614 3.286-3.315 3.913a4.72 4.72 0 0 1-.163.138c-.407.326-.63.406-1.744.406H36.422V.026h-3.33v15.949h3.33v-6.31h15.604c1.113 0 1.337.083 1.744.406.707.563 1.75 1.878 3.478 4.051l.832 1.046.618.807h4.198l-2.186-2.845-.019-.025ZM25.056 7.527c-.922-1.133-1.677-2.1-2.288-2.88-1.402-1.792-2.246-2.874-3.222-3.584-1.19-.868-2.384-1.04-3.92-1.04-.89 0-1.546.064-2.128.208-.701.172-1.325.473-1.904.918-.992.762-1.853 1.92-3.28 3.843-.55.743-1.178 1.584-1.936 2.576l-.01.013-6.186 8.397H4.32L9.03 9.58a204.999 204.999 0 0 0 1.956-2.605c1.21-1.629 2.006-2.707 2.63-3.18.397-.305.78-.439 2.01-.439 1.865 0 1.9 0 4.515 3.344.614.787 1.38 1.763 2.314 2.915l4.94 6.362h4.218l-6.54-8.42-.023-.028.006-.003ZM89.42 7.528c-.918-1.13-1.676-2.1-2.284-2.877-1.402-1.792-2.247-2.874-3.22-3.58C82.727.202 81.537.03 80 .03s-2.727.172-3.917 1.04c-.976.71-1.82 1.791-3.22 3.58-.607.777-1.366 1.747-2.284 2.877l-.022.029-6.538 8.415h4.218l4.94-6.358c.935-1.149 1.7-2.128 2.314-2.915 2.614-3.344 2.65-3.344 4.515-3.344 1.866 0 1.9 0 4.515 3.344.615.787 1.38 1.763 2.314 2.915l4.94 6.358h4.218l-6.537-8.415-.023-.03h-.013Z"/>
    <path d="m83.492 12.124-.368.02.105-.353 1.098-3.683-2.855 2.297-.313.253-.096-.39-1.05-3.533-.976 3.67-.093.41-.323-.265-2.94-2.426 1.09 3.657.106.352-.365-.022-1.328-.074L73.188 12 80 15.916l6.765-3.981-1.94.112-1.334.077Z"/>
  </g>
  <defs>
    <clipPath id="a">
      <path fill="#fff" d="M0 0h149.76v16H0z"/>
    </clipPath>
  </defs>
</svg>
