<svg width="113" height="28" viewBox="0 0 113 28" fill="none" xmlns="http://www.w3.org/2000/svg">
<path d="M112.574 0.372559V27.6273H107.597L95.7393 10.4733H95.5397V27.6273H89.7773V0.372559H94.8344L106.599 17.5132H106.838V0.372559H112.574Z" fill="white"/>
<path d="M65.5588 27.6273V0.372559H76.3117C78.37 0.372559 80.1266 0.740746 81.5817 1.47712C83.0455 2.20462 84.159 3.23821 84.922 4.57788C85.6938 5.90868 86.0798 7.47459 86.0798 9.2756C86.0798 11.0855 85.6894 12.6425 84.9087 13.9467C84.1279 15.242 82.9967 16.2357 81.5151 16.9277C80.0424 17.6197 78.2591 17.9657 76.1653 17.9657H68.9657V13.3345H75.2337C76.3339 13.3345 77.2477 13.1837 77.9752 12.8821C78.7027 12.5804 79.2439 12.1279 79.5988 11.5246C79.9625 10.9214 80.1444 10.1717 80.1444 9.2756C80.1444 8.37066 79.9625 7.60767 79.5988 6.98663C79.2439 6.36559 78.6983 5.89537 77.9619 5.57598C77.2344 5.24772 76.3161 5.08359 75.2071 5.08359H71.3212V27.6273H65.5588ZM80.2775 15.2243L87.0512 27.6273H80.69L74.0626 15.2243H80.2775Z" fill="white"/>
<path d="M61.1925 0.372559V27.6273H55.4302V0.372559H61.1925Z" fill="white"/>
<path d="M32.4693 27.6273H26.2944L35.7032 0.372559H43.129L52.5245 27.6273H46.3496L39.5226 6.6007H39.3096L32.4693 27.6273ZM32.0834 16.9144H46.669V21.4125H32.0834V16.9144Z" fill="white"/>
<path d="M24.5266 9.91445H18.6977C18.5913 9.16033 18.3739 8.49049 18.0456 7.90494C17.7174 7.31052 17.2959 6.80482 16.7814 6.38783C16.2668 5.97085 15.6724 5.65146 14.9981 5.42966C14.3327 5.20786 13.6096 5.09696 12.8289 5.09696C11.4183 5.09696 10.1895 5.4474 9.14259 6.14829C8.09569 6.8403 7.2839 7.85171 6.70722 9.18251C6.13054 10.5044 5.84221 12.1103 5.84221 14C5.84221 15.943 6.13054 17.5754 6.70722 18.8973C7.29278 20.2193 8.109 21.2174 9.15589 21.8916C10.2028 22.5659 11.4138 22.903 12.789 22.903C13.5608 22.903 14.275 22.801 14.9316 22.597C15.597 22.3929 16.1869 22.0957 16.7015 21.7053C17.2161 21.3061 17.642 20.8226 17.9791 20.2548C18.3251 19.6869 18.5646 19.0393 18.6977 18.3118L24.5266 18.3384C24.3758 19.5894 23.9987 20.7959 23.3954 21.9582C22.801 23.1115 21.9981 24.1451 20.9867 25.0589C19.9842 25.9639 18.7864 26.6825 17.3935 27.2148C16.0095 27.7383 14.4436 28 12.6958 28C10.2649 28 8.09126 27.4499 6.17491 26.3498C4.26743 25.2497 2.75919 23.6572 1.65019 21.5722C0.550063 19.4873 0 16.9632 0 14C0 11.0279 0.558935 8.49937 1.67681 6.41445C2.79468 4.32953 4.31179 2.74144 6.22814 1.65019C8.14449 0.550063 10.3004 0 12.6958 0C14.275 0 15.7389 0.221799 17.0875 0.665399C18.4449 1.109 19.647 1.75665 20.6939 2.60837C21.7408 3.4512 22.5925 4.48479 23.2491 5.70913C23.9144 6.93346 24.3403 8.33523 24.5266 9.91445Z" fill="white"/>
</svg>
