<svg xmlns="http://www.w3.org/2000/svg" width="17312" height="4441.333" version="1.0" viewBox="0 0 12984 3331" >
  <path fill="currentColor" d="M6932 1.1c-209.8 13.9-379.8 122-475.7 302.4-70.2 132.2-96.5 301.5-72.7 469 18.1 127.8 66.1 239.7 142.3 331.5 12.6 15.3 51.5 54.1 66.9 66.8 91.4 75.6 197.9 118.2 324.2 129.7 24.2 2.2 75.8 3 100.5 1.6 136.1-7.9 250.1-51.2 347-131.7 16.2-13.5 49.7-46.8 63.7-63.4 56.3-66.8 96.5-143.3 122.3-232.5 26.5-91.7 35.8-195.2 26.9-297.5-23.1-266-168-468-390.2-544-51.2-17.6-105.1-28.1-163.6-31.9-18.2-1.3-73-1.2-91.6 0zm79.5 208.9c64.2 5.8 116.7 25.8 163.5 62.1 11.9 9.2 33.7 30.4 44.2 42.9 54.2 64.6 87.6 154.3 98.3 264 5.7 58.9 4.2 122.4-4.1 179.5-13.7 93.3-45.1 170.3-93.1 228.2-9.9 11.9-31.7 33.4-43.3 42.6-38.4 30.6-85.4 51.3-135.3 59.6-19.7 3.3-29 4.2-51.7 4.8-80.6 2.2-151.2-20.1-209.2-65.8-13-10.3-38-35.3-48.5-48.6-51.5-64.9-83.1-150.3-93.7-253.3-3.9-37.2-4.6-96.1-1.6-131.5 9.4-112.4 41-202.2 95.3-270.8 10.6-13.5 38.7-41.3 51.2-50.8 49.8-37.8 102.2-57.4 169-63.2 9.4-.8 48.9-.6 59 .3zM0 1524.5V3025h667V24H0v1500.5zM1000 1191v1167h667V24h-667v1167zM2000 1524.5V3025h667V24h-667v1500.5zM3000 358v334h667V24h-667v334zM4000 358v334h1667V24H4000v334zM8170.5 353.6c-27.8 2.8-45.2 5.8-65.4 11.4-62.5 17.5-116.8 54.5-161.4 110.2-7 8.8-11.7 13.8-12.9 13.8-1.7 0-1.8-2.2-1.8-56v-56h-230v1192h238v-197.5c0-172.7.2-197.5 1.5-197.5.8 0 3.2 2.7 5.5 6 2.2 3.3 7.5 10.3 11.8 15.7 48.6 60.9 116 95.4 202.9 103.8 17.3 1.7 58.5 1.9 75.8.5 119.6-10.3 217.2-71.5 280.3-175.9 27.4-45.5 48.4-101.5 60.1-160.6 14.8-74.7 16.8-160.9 5.5-238.4-9.9-68.8-30.7-131.8-61.2-185.6-7.9-14-24.8-38.9-35.3-52.1-11.9-15-42.2-45.7-55.9-56.6-44.5-35.3-94.1-58.6-148.8-69.8-27.4-5.5-42.8-7.1-75.2-7.5-16.2-.1-31.3-.1-33.5.1zm-10 193.5c93.1 8 152.7 69.1 175 179.3 6.7 33.5 9.5 64.4 9.5 106.1 0 68.4-10 118.8-32.5 165-28.1 57.4-72.3 91.9-131.5 102.7-9.3 1.7-15.6 2.1-33 2.1-38.5.1-67.2-6.2-97.5-21.3-19.1-9.5-30.3-17.8-47-34.5-24.8-24.8-40.9-51.6-53.4-89.3-16.9-50.8-22.2-118.8-14.5-186.7 9.7-85.9 39.5-150.1 86.7-186.8 36.6-28.5 84.6-41.3 138.2-36.6zM9059.5 354.1c-180 13.5-323.7 128.4-380.8 304.4-25.2 77.5-31.9 164.9-19.6 252.5 18 127.6 78.4 234.4 171.4 303.3 63.1 46.7 138.9 74.6 229 84.4 24 2.6 93.9 2.6 116 0 89.8-10.4 159.2-37.2 221.5-85.3 21.4-16.5 52.6-49.2 69.8-73.1 24.7-34.3 45.8-80.7 55.3-121.3 1.1-4.7 2.2-9.3 2.5-10.3.5-1.6-5.6-1.7-117.3-1.7h-117.9l-2.3 5.7c-1.3 3.2-4.5 10-7.2 15.1-19.7 37.4-47.6 62.3-85.9 76.5-40.8 15.1-97.3 16.6-145.2 3.8-72.4-19.3-123-72.1-147.8-154.1-4.2-14-10.4-42.8-11.6-53.8l-.7-6.2H9539v-6.3c0-13.3-2.1-56-3.5-72.7-11.3-130.4-48.8-235.1-113.4-316.5-12.5-15.8-43.4-46.7-59.1-59.1-64.6-51.1-139.1-78.7-230.5-85.4-16.1-1.1-56.9-1.1-73 .1zM9114 538c84.7 6.5 146.8 60.4 168.6 146.4 2.8 11.1 6.4 33.7 6.4 40.3v4.3h-198.5c-109.2 0-198.5-.3-198.5-.7 0-3.1 8-35.3 11.6-46.3 13.2-41.2 30.4-70.3 55.6-94.6 30.7-29.5 71.8-46.2 121.8-49.4 17.4-1.1 18.5-1.1 33 0zM10123 353.7c-31.6 2.4-63.3 9-89.7 18.9-54.8 20.4-103 60.3-140.4 116.2-5.7 8.6-7.9 11.1-9.6 11.2h-2.3V377h-233v898h239v-263.8c0-287.3-.2-275 5.6-301.1 8.8-39.4 25-71 49.9-96.9 29.3-30.6 65.2-47.9 108.5-52.3 30.3-3 67.3 3.2 92.1 15.6 19.2 9.6 40 27.7 51.2 44.6 15.2 23 24.6 50.7 27.6 81.3.8 7.5 1.1 100.4 1.1 291.8V1275h239V976.7c0-187.8-.4-304.1-1-314.2-5.9-93.8-39.5-172.6-97.6-228.5-21.7-21-42.7-35.6-70.9-49.5-34.9-17.2-70.5-27-111-30.5-11-.9-47.8-1.1-58.5-.3zM3000 2024.5V3025h667V1024h-667v1000.5zM4000 2024.5V3025h667V1024h-667v1000.5zM6429 2399.5V3025h842v-212h-587V1774h-255v625.5zM10807 1881v107h239v-214h-239v107zM7733 2104.1c-131.9 9.8-245 73.4-319.7 179.7-78.6 111.9-106 264.9-74.2 415.7 14.7 70.1 45.8 137.5 87.5 190.2 75.6 95.4 186.1 150.2 322.9 160.3 18 1.3 64.9 1.3 83 0 164-12 291.3-96.8 346.4-230.8 7.5-18.4 13.5-37.6 18.5-59.5l.6-2.7h-235.5l-4.3 9.8c-23.7 54.8-68.3 88-130.5 97.2-35.3 5.3-73.7 3-107.7-6.4-74.8-20.6-126.4-77.8-149-164.9-3.7-14.4-9-41.5-9-46.4v-2.3h650v-8.3c0-14.2-1.9-52.5-3.5-71.2-11.1-128.5-49.3-235.7-112.1-314.5-13-16.3-44.7-48.3-59.9-60.4-14.1-11.3-39.7-28.3-54.9-36.5-52.1-28.2-109.6-44.2-176.1-49.1-15.9-1.1-56.8-1.1-72.5.1zm69 185.5c79.1 11.2 137.5 68.4 155.4 152.4 2.3 10.7 4.6 26.7 4.6 32.2v4.8h-396.9l.6-3.3c1.9-10.2 6.6-29.8 9.8-40.2 20.5-67.8 58-112.1 113.4-133.9 31.6-12.5 76.3-17.2 113.1-12zM10323.5 2103.6c-28.6 2.7-45.4 5.5-64.2 10.4-66.7 17.7-122.6 59.2-166 123.2-5.8 8.5-9.3 12.8-10.5 12.8-1.7 0-1.8-2.9-1.8-61.5V2127h-234v898h239l.3-268.3c.3-296.2-.2-272 6.4-300.2 17.6-74.9 69.1-128.4 137-142.5 24.9-5.1 53.5-4.9 77.9.6 56.8 12.7 95.5 52.2 109.3 111.4 5.3 22.5 5.1 9.9 5.1 315.6V3025h239v-301.8c0-192.4-.4-306.6-1-315.2-8.9-119.6-62.4-212.9-152.3-265.5-32.1-18.7-69.8-31.1-112.7-37.1-10.9-1.5-61.4-2.8-71.5-1.8zM11669 2104.1c-69.9 6-126.1 29.9-174.4 74.2-16.9 15.4-37.1 39.6-52.5 62.4-4.3 6.5-6.7 9.3-8.1 9.3-2 0-2-.9-2-61.5V2127h-234v898h239l.3-266.3c.3-247.3.4-267 2-277.7 7.1-46.3 23.3-83.7 49.2-113.3 33.7-38.4 85.1-59.8 138.1-57.3 60.2 2.7 105.2 30.3 128.7 78.9 8.2 16.8 12.8 31.9 16.4 54 1.6 9.4 1.7 33.8 2 295.9l.3 285.8h238v-305.8c0-329.1.2-318.6-5-349.7-6.6-39-16.6-70.5-33.1-103.5-15.2-30.3-32.9-55-55.9-78-22.9-22.9-46-39.5-74.5-53.5-34.6-17-71.2-27.1-110.8-30.4-14.5-1.2-49.4-1.2-63.7 0zM12473.5 2103.6c-96.1 7.7-174.4 42.3-237 104.9-71.1 71.1-112.4 170.9-120.6 291.7-1.5 23.3-.7 80.4 1.5 98.8 9.4 78.5 31.9 141.9 71 200 74.5 110.7 200.1 175.5 332.6 171.7 86.9-2.6 150.3-29.5 209.1-88.9 8.6-8.7 16.4-15.8 17.3-15.8 1.6 0 1.7 4.1 1.3 63.7-.4 69.5-.6 72.7-6.7 96.8-18 71.9-67.7 111.2-153.5 121.7-16.4 2-63.4 1.7-80-.5-44.5-6-78.5-20.1-102.7-42.7-13.2-12.2-25.6-30.4-31.9-46.6l-3.3-8.4h-236.9l.7 5.2c2.5 19.4 9.9 47 18.3 68.3 27 68.7 79.7 123.4 152.6 158.5 67.7 32.6 150.3 49 247.8 49 127.8 0 228.7-27.5 301.9-82.3 14.7-11.1 38.8-33.9 50.8-48.2 37.6-44.8 61.7-98.5 72.1-161 6-36.1 5.5 3.9 5.9-475.8l.2-436.7h-230v47.5c0 26.1-.4 47.5-.8 47.5-.5 0-4.4-4.6-8.8-10.3-4.3-5.6-14.8-17.2-23.4-25.7-22.9-23-42.8-37.3-71.1-51.4-30.4-15.1-60.5-23.9-100.4-29.2-10.6-1.5-64.5-2.7-76-1.8zm107.5 193c45.3 5.6 86 25.6 116 57 32 33.5 52.5 79 61.1 135.4 2.2 13.9 2.4 18.9 2.4 48.5 0 35.5-.9 46.5-6.2 72.5-17.2 85.4-66.7 142.5-140.3 161.6-18.4 4.8-32.2 6.6-55.6 7.1-23.4.6-35.2-.3-52.9-3.8-57.5-11.6-104.2-48.6-130.4-103.4-18.2-37.9-26.5-79.3-26.5-132 0-27.6.9-40.8 4.5-62 17.4-103.4 80.9-171.2 169.9-181.4 19.6-2.3 36.5-2.1 58 .5zM8665 2105.6c-2.5.2-10.3.9-17.5 1.5-149.4 12.5-257.3 78.2-303.8 184.9-9.7 22.3-16.8 46.5-20.6 71-1.7 10.4-4.1 32.1-4.1 36.7 0 1 21.9 1.3 106.3 1.3h106.3l1.3-10.1c3.6-29.3 14-53.2 30.9-71 13.5-14.2 26.6-22.9 46-30.4 41.3-15.9 110.2-19 157.8-7 44.9 11.3 74.1 36.8 83.4 73 3 11.3 3.7 31.5 1.6 41.5-5.1 24.3-22.5 41.4-54.1 53.4-27.5 10.3-63 17.5-145.8 29.6-82.3 12-127.2 21.5-173.7 37.1-107.6 36-170.4 94.1-192.4 177.9-13.3 50.9-12.4 112.5 2.5 163.7 11.5 39.7 31.7 74.1 60.4 102.8 48.9 48.9 118.8 77 208 83.6 20.1 1.4 69.4.6 89.8-1.6 87.9-9.3 145.6-38 191-95 4.4-5.5 9.9-12.8 12.1-16.2 6-9.2 6.9-8.6 9 5.5 5.5 37.3 13.3 65.8 22.6 82l3 5.2h231v-4.3c0-3.8-.6-4.9-5.6-10.1-6.8-7.2-14.1-21.9-17.8-35.6-3.4-12.6-6.3-32.7-7.6-53-.6-10.5-1-105.6-1-263 0-153-.4-251.6-1-260-6.5-89.3-32.1-153.2-80.5-201.5-52.1-52-124.6-80.4-231.5-90.6-10.9-1-96.5-2.1-106-1.3zm193.7 556.9-.3 68-2.6 10.5c-12.7 51.1-45.2 90-95.8 114.4-22.1 10.6-45.3 17.4-73 21.3-15.8 2.2-58.7 2.5-73 .5-50.6-7.1-81.3-26.5-95.6-60.3-12.9-30.5-12.3-75.3 1.4-102.4 14.2-28.2 43.8-49.3 92.2-65.7 24.4-8.2 39-12.1 110-28.8 67.6-16 99.8-26.2 128.5-40.7l8-4.1.3 9.7c.2 5.3.1 40.2-.1 77.6zM9664.5 2117.6c-44.2 4.5-77 16.7-108.3 40.1-11.4 8.6-32.1 29.1-43.3 43-11.8 14.7-26.6 36.8-37.4 56.1-6.6 11.6-8.4 14.2-10.2 14.2h-2.3v-144h-230v898h239v-222.8c0-135.1.4-229.2 1-239.2 3.2-53.9 16.3-100.2 38.3-135.7 40.4-65.1 111-98.9 200.7-95.9 10.7.3 22.5.9 26.3 1.2l6.7.7V2124l-2.7-1.1c-1.6-.6-6.8-2-11.8-3.1-7.5-1.6-13.5-2-35.5-2.3-14.6-.1-28.3-.1-30.5.1zM10807 2576v449h239v-898h-239v449z"/>
</svg>
